<?xml version="1.0" standalone="no"?>
<!DOCTYPE svg PUBLIC "-//W3C//DTD SVG 20010904//EN"
 "http://www.w3.org/TR/2001/REC-SVG-20010904/DTD/svg10.dtd">
<svg version="1.0" xmlns="http://www.w3.org/2000/svg"
 width="980.000000pt" height="1280.000000pt" viewBox="0 0 980.000000 1280.000000"
 preserveAspectRatio="xMidYMid meet">
<metadata>
Created by potrace 1.15, written by Peter Selinger 2001-2017
</metadata>
<g transform="translate(0.000000,1280.000000) scale(0.100000,-0.100000)"
fill="#000000" stroke="none">
<path d="M3050 12780 c-11 -11 -20 -30 -20 -42 0 -15 73 -96 245 -268 l245
-246 0 -1547 0 -1547 -74 -123 c-393 -657 -2159 -4019 -3061 -5827 -174 -351
-231 -475 -268 -585 -169 -511 -152 -1024 50 -1499 132 -308 389 -638 613
-788 229 -152 497 -246 825 -290 148 -19 6442 -19 6590 0 632 84 1007 329
1329 866 290 482 353 1112 170 1679 -45 139 -55 162 -316 732 -346 754 -635
1361 -1313 2755 -654 1345 -950 1966 -1266 2659 l-189 413 0 1551 0 1551 245
246 c169 170 245 253 245 268 0 12 -9 31 -20 42 -20 20 -33 20 -2015 20 -1982
0 -1995 0 -2015 -20z"/>
</g>
</svg>
